<?xml version="1.0" encoding="utf-8"?>
<!-- Generator: Adobe Illustrator 16.0.0, SVG Export Plug-In . SVG Version: 6.00 Build 0)  -->
<!DOCTYPE svg PUBLIC "-//W3C//DTD SVG 1.1//EN" "http://www.w3.org/Graphics/SVG/1.1/DTD/svg11.dtd">
<svg version="1.1" id="Layer_1" xmlns="http://www.w3.org/2000/svg" xmlns:xlink="http://www.w3.org/1999/xlink" x="0px" y="0px"
	 width="315.899px" height="132.461px" viewBox="0 0 315.899 132.461" enable-background="new 0 0 315.899 132.461"
	 xml:space="preserve">
<g>
	<g>
		<g>
			<path fill="#FFFFFF" d="M49.501,100.374c0,0-36.007-19.569-25.174-43.614c10.835-24.052,59.006-41.752,127.342-45.11
				c80.921-3.985,164.23,13.443,164.23,13.443S232.329,0.006,160.853,0C71.01-0.006,6.93,20.387,0.435,54.894
				C-5.403,85.877,49.501,100.374,49.501,100.374z"/>
		</g>
		<g>
			<path fill="#FFFFFF" d="M63.679,63.239H66.9v32.236h-3.222L63.679,63.239L63.679,63.239z"/>
			<path fill="#FFFFFF" d="M74.308,95.476V63.239h0.707l21.451,24.71v-24.71h3.179v32.236H98.92L77.64,71.069v24.406L74.308,95.476
				L74.308,95.476z"/>
			<path fill="#FFFFFF" d="M127.766,63.239h3.224V76.76h16.412V63.239h3.227v32.236h-3.227V79.918H130.99v15.558h-3.224V63.239
				L127.766,63.239z"/>
			<path fill="#FFFFFF" d="M158.009,63.239h3.223v32.236h-3.223V63.239z"/>
			<path fill="#FFFFFF" d="M168.64,95.476V63.239h0.702l21.455,24.71v-24.71h3.177v32.236h-0.722l-21.281-24.406v24.406
				L168.64,95.476L168.64,95.476z"/>
			<path fill="#FFFFFF" d="M201.821,63.239h3.287v12.093l12.887-12.093h4.33l-15.482,14.457L223.53,95.47h-4.289l-14.128-15.017
				V95.47h-3.29L201.821,63.239L201.821,63.239z"/>
			<path fill="#FFFFFF" d="M227.879,63.239h3.223v32.236h-3.223V63.239z"/>
			<path fill="#FFFFFF" d="M238.51,95.476V63.239h0.705l21.451,24.71v-24.71h3.182v32.236h-0.727L241.84,71.069v24.406
				L238.51,95.476L238.51,95.476z"/>
			<path fill="#FFFFFF" d="M302.79,68.653l-2.498,2.363c-1.795-1.77-3.765-3.105-5.905-4.021c-2.144-0.911-4.226-1.371-6.259-1.371
				c-2.527,0-4.938,0.621-7.223,1.865c-2.285,1.241-4.057,2.924-5.313,5.051c-1.26,2.125-1.885,4.373-1.885,6.737
				c0,2.427,0.651,4.729,1.949,6.916c1.299,2.185,3.096,3.902,5.391,5.152c2.295,1.247,4.81,1.87,7.539,1.87
				c3.322,0,6.125-0.934,8.416-2.805c2.295-1.875,3.658-4.293,4.08-7.277h-10.278v-3.11H304.7
				c-0.033,4.979-1.509,8.938-4.437,11.865c-2.929,2.928-6.853,4.397-11.763,4.397c-5.955,0-10.679-2.037-14.158-6.102
				c-2.67-3.123-4.008-6.744-4.008-10.84c0-3.057,0.769-5.899,2.303-8.529c1.533-2.633,3.639-4.685,6.311-6.174
				c2.676-1.478,5.7-2.225,9.074-2.225c2.732,0,5.307,0.493,7.712,1.475C298.145,64.892,300.495,66.478,302.79,68.653z"/>
		</g>
	</g>
	<g>
		<path fill="#FFFFFF" d="M123.751,41.057c-0.131,0.259-0.474,0.94-28.52,7.094v8.862c0.705-1.589,1.981-4.316,2.716-4.973
			c0.99-0.887,11.878-3.946,14.755-3.946c0.454,0,0.744,0.07,0.936,0.23c0.281,0.231,0.867,0.714,0.304,22.926
			c-0.022,0.896-0.557,21.979-1.096,22.781c-0.38,0.568-2.225,1.848-3.584,2.75c1.244-0.318,2.813-0.693,3.38-0.693
			c0.741,0.021,5.556,1.718,8.145,2.646c-1.661-1.391-4.186-3.582-4.508-4.311c-0.443-1.014,4.342-47.17,4.97-47.945
			c0.553-0.683,5.368-1.808,8.55-2.488l-6.786-5.531C123.615,39.473,124.036,40.495,123.751,41.057z"/>
		<path fill="#FFFFFF" d="M109.646,33.753c0.563,1.282,1.501,2.354,2.951,3.37c1.729,1.208,3.221,1.723,4.617,1.673
			c1.96-0.12,3.092-1.614,3.021-4.005c-0.102-3.486-2.969-8.76-7.059-8.76c-0.478,0-0.967,0.078-1.453,0.228
			c-0.319,0.099-0.635,0.235-0.955,0.407C108.269,28.007,108.755,31.725,109.646,33.753z"/>
	</g>
</g>
<g>
	<path fill="#FFFFFF" d="M141.371,111.129c-1.081-1.104-2.69-1.701-4.323-1.701c-3.886,0-7.358,3.242-7.957,7.082
		c-0.621,3.795,1.817,7.037,5.68,7.037c1.702,0,3.449-0.645,4.898-1.794l-0.391,2.553c-1.472,0.781-3.242,1.219-4.76,1.219
		c-4.944,0-8.393-3.933-7.611-8.945c0.805-5.128,5.565-9.129,10.67-9.129c1.518,0,2.989,0.368,4.185,1.173L141.371,111.129z"/>
	<path fill="#FFFFFF" d="M146.479,105.197l-1.679,10.647h0.046c0.828-1.15,2.208-1.771,3.519-1.771c3.035,0,3.495,2.047,3.081,4.668
		l-1.012,6.416h-2.069l0.966-6.163c0.299-1.839,0.253-3.081-1.863-3.081c-2.667,0-3.035,2.346-3.357,4.3l-0.782,4.944h-2.069
		l3.15-19.96H146.479z"/>
	<path fill="#FFFFFF" d="M163.153,125.157h-2.069l0.275-1.679h-0.046c-1.034,1.219-2.46,2.047-4.001,2.047
		c-3.288,0-4.714-2.736-4.208-5.818c0.46-2.943,2.829-5.634,5.956-5.634c1.586,0,2.759,0.828,3.403,2.116h0.046l0.275-1.794h2.069
		L163.153,125.157z M162.049,119.776c0.321-2.093-0.645-3.863-2.875-3.863c-2.138,0-3.702,1.862-4.024,3.863
		c-0.322,2.023,0.598,3.909,2.783,3.909C160.186,123.685,161.705,121.891,162.049,119.776z"/>
	<path fill="#FFFFFF" d="M169.157,115.844h0.046c0.828-1.15,2.208-1.771,3.519-1.771c3.035,0,3.495,2.047,3.081,4.668l-1.012,6.416
		h-2.069l0.966-6.163c0.299-1.839,0.253-3.081-1.862-3.081c-2.668,0-3.036,2.346-3.357,4.3l-0.782,4.944h-2.069l1.701-10.762h2.07
		L169.157,115.844z"/>
	<path fill="#FFFFFF" d="M187.509,124.95c-0.575,3.702-2.047,6.37-6.231,6.37c-2.989,0-4.875-1.84-4.438-4.875h2.069
		c-0.299,1.932,0.852,3.035,2.737,3.035c2.552,0,3.356-1.748,3.702-3.955l0.345-2.047h-0.046c-1.035,1.219-2.483,2.047-4.001,2.047
		c-3.312,0-4.715-2.736-4.209-5.818c0.46-2.943,2.829-5.634,5.934-5.634c1.609,0,2.782,0.828,3.402,2.162h0.047l0.299-1.84h2.069
		L187.509,124.95z M186.382,119.776c0.322-2.093-0.644-3.863-2.874-3.863c-2.139,0-3.702,1.862-4.024,3.863
		c-0.322,2.023,0.598,3.909,2.782,3.909C184.52,123.685,186.038,121.891,186.382,119.776z"/>
	<path fill="#FFFFFF" d="M191.997,120.121c-0.276,1.84,0.689,3.564,2.667,3.564c1.587,0,2.575-0.805,3.564-2.093l1.587,0.989
		c-1.312,1.862-3.381,2.943-5.474,2.943c-3.288,0-4.875-2.483-4.392-5.657c0.528-3.312,2.69-5.795,6.162-5.795
		c3.427,0,4.646,2.53,4.14,5.727l-0.046,0.321H191.997z M198.366,118.557c0.023-1.609-0.874-2.69-2.529-2.69
		c-1.609,0-2.989,1.149-3.495,2.69H198.366z"/>
	<path fill="#FFFFFF" d="M207.336,114.395h2.415l2.552,6.829l4.462-6.829h2.322l-11.383,16.925h-2.346l5.496-8.003L207.336,114.395z
		"/>
	<path fill="#FFFFFF" d="M229.645,119.799c-0.506,3.242-3.449,5.726-6.669,5.726s-5.335-2.483-4.829-5.726
		c0.506-3.243,3.427-5.727,6.646-5.727C228.012,114.073,230.151,116.556,229.645,119.799z M220.216,119.799
		c-0.321,2.023,1.035,3.748,3.082,3.748c2.046,0,3.955-1.725,4.276-3.748c0.322-2.047-1.034-3.749-3.081-3.749
		S220.539,117.752,220.216,119.799z"/>
	<path fill="#FFFFFF" d="M234.13,114.395l-0.942,5.956c-0.276,1.725-0.069,3.242,1.978,3.242s2.714-1.518,2.989-3.242l0.943-5.956
		h2.069l-0.966,6.186c-0.483,2.943-2.185,4.944-5.358,4.944c-3.173,0-4.23-2.001-3.748-4.944l0.966-6.186H234.13z"/>
	<path fill="#FFFFFF" d="M245.63,116.143h0.069c0.713-1.265,1.886-2.07,3.266-2.07c0.598,0,1.172,0.207,1.632,0.529l-1.241,1.886
		c-0.322-0.322-0.713-0.438-1.196-0.438c-2.23,0-2.851,2.07-3.127,3.817l-0.828,5.289h-2.069l1.702-10.762h2.069L245.63,116.143z"/>
	<path fill="#FFFFFF" d="M259.752,115.751h0.046c0.736-0.942,1.932-1.679,3.104-1.679c1.402,0,2.3,0.713,2.806,1.909
		c0.851-1.15,2.253-1.909,3.61-1.909c2.828,0,3.219,2.208,2.828,4.646l-1.012,6.438h-2.069l0.965-6.094
		c0.207-1.38,0.322-3.15-1.494-3.15c-2.208,0-2.736,2.3-3.013,3.955l-0.827,5.289h-2.07l0.897-5.703
		c0.229-1.402,0.506-3.541-1.403-3.541c-2.207,0-2.759,2.276-3.035,3.955l-0.828,5.289h-2.069l1.702-10.762h2.069L259.752,115.751z"
		/>
	<path fill="#FFFFFF" d="M276.198,125.157h-2.069l1.701-10.762h2.07L276.198,125.157z M279.072,109.474
		c-0.114,0.782-0.873,1.402-1.655,1.402s-1.311-0.62-1.195-1.402c0.138-0.805,0.873-1.448,1.655-1.448
		S279.21,108.669,279.072,109.474z"/>
	<path fill="#FFFFFF" d="M282.821,115.844h0.046c0.828-1.15,2.208-1.771,3.519-1.771c3.035,0,3.495,2.047,3.081,4.668l-1.012,6.416
		h-2.069l0.966-6.163c0.299-1.839,0.253-3.081-1.862-3.081c-2.668,0-3.036,2.346-3.357,4.3l-0.782,4.944h-2.069l1.701-10.762h2.07
		L282.821,115.844z"/>
	<path fill="#FFFFFF" d="M299.379,123.478h-0.046c-1.034,1.219-2.483,2.047-4.001,2.047c-3.312,0-4.714-2.736-4.208-5.818
		c0.46-2.943,2.828-5.634,5.933-5.634c1.609,0,2.782,0.828,3.427,2.116h0.046l1.725-10.992h2.069l-3.15,19.96h-2.069
		L299.379,123.478z M300.07,119.776c0.321-2.093-0.645-3.863-2.875-3.863c-2.138,0-3.702,1.862-4.023,3.863
		c-0.322,2.023,0.598,3.909,2.782,3.909C298.207,123.685,299.725,121.891,300.07,119.776z"/>
</g>
</svg>
